{
	"asset":{
		"generator":"Khronos glTF Blender I/O v4.3.47",
		"version":"2.0"
	},
	"scene":0,
	"scenes":[
		{
			"name":"Scene",
			"nodes":[
				0,
				1,
				2
			]
		}
	],
	"nodes":[
		{
			"mesh":0,
			"name":"Mesh_0",
			"rotation":[
				0,
				0.016491444781422615,
				0,
				0.9998641014099121
			],
			"scale":[
				1.2257999181747437,
				1.2257999181747437,
				1.2257999181747437
			],
			"translation":[
				0.5077466368675232,
				0,
				1.8510353565216064
			]
		},
		{
			"mesh":1,
			"name":"Object",
			"rotation":[
				-0.45051637291908264,
				0.11922777444124222,
				-0.8211572766304016,
				0.3294244706630707
			],
			"scale":[
				1.4924589395523071,
				1.5677086114883423,
				1.5382851362228394
			],
			"translation":[
				0.5077466368675232,
				0,
				1.8510351181030273
			]
		},
		{
			"mesh":2,
			"name":"Cube",
			"rotation":[
				0,
				-0.7071068286895752,
				0.7071068286895752,
				1.1520233300643667e-07
			],
			"scale":[
				1.701113224029541,
				1.1716282367706299,
				2.893226385116577
			],
			"translation":[
				0.5077466368675232,
				0,
				1.8510353565216064
			]
		}
	],
	"materials":[
		{
			"name":"Material_0",
			"normalTexture":{
				"index":0
			},
			"occlusionTexture":{
				"index":1
			},
			"pbrMetallicRoughness":{
				"baseColorTexture":{
					"index":2
				},
				"metallicFactor":0,
				"metallicRoughnessTexture":{
					"index":1
				}
			}
		},
		{
			"doubleSided":true,
			"name":"material",
			"normalTexture":{
				"index":3
			},
			"pbrMetallicRoughness":{
				"baseColorTexture":{
					"index":4
				},
				"metallicFactor":0,
				"roughnessFactor":0.5527864098548889
			}
		}
	],
	"meshes":[
		{
			"name":"Mesh_0",
			"primitives":[
				{
					"attributes":{
						"POSITION":0,
						"NORMAL":1,
						"TEXCOORD_0":2
					},
					"indices":3,
					"material":0
				}
			]
		},
		{
			"name":"Mesh",
			"primitives":[
				{
					"attributes":{
						"POSITION":4,
						"NORMAL":5,
						"TEXCOORD_0":6
					},
					"indices":7,
					"material":1
				}
			]
		},
		{
			"name":"Cube.003",
			"primitives":[
				{
					"attributes":{
						"POSITION":8,
						"NORMAL":9,
						"TEXCOORD_0":10
					},
					"indices":11
				}
			]
		}
	],
	"textures":[
		{
			"sampler":0,
			"source":0
		},
		{
			"sampler":0,
			"source":1
		},
		{
			"sampler":0,
			"source":2
		},
		{
			"sampler":0,
			"source":3
		},
		{
			"sampler":0,
			"source":4
		}
	],
	"images":[
		{
			"mimeType":"image/jpeg",
			"name":"Image_0",
			"uri":"Image_0.jpg"
		},
		{
			"mimeType":"image/png",
			"name":"Image_1-Image_3",
			"uri":"Image_1-Image_3.png"
		},
		{
			"mimeType":"image/jpeg",
			"name":"Image_2",
			"uri":"Image_2.jpg"
		},
		{
			"mimeType":"image/jpeg",
			"name":"normal",
			"uri":"normal.jpg"
		},
		{
			"mimeType":"image/jpeg",
			"name":"color",
			"uri":"color.jpg"
		}
	],
	"accessors":[
		{
			"bufferView":0,
			"componentType":5126,
			"count":530926,
			"max":[
				0.9775453805923462,
				-0.7996203899383545,
				-0.727780282497406
			],
			"min":[
				-1.628713607788086,
				-4.457761287689209,
				-2.3985445499420166
			],
			"type":"VEC3"
		},
		{
			"bufferView":1,
			"componentType":5126,
			"count":530926,
			"type":"VEC3"
		},
		{
			"bufferView":2,
			"componentType":5126,
			"count":530926,
			"type":"VEC2"
		},
		{
			"bufferView":3,
			"componentType":5125,
			"count":530994,
			"type":"SCALAR"
		},
		{
			"bufferView":4,
			"componentType":5126,
			"count":27005,
			"max":[
				0.6989943385124207,
				1.8640215396881104,
				0.23386049270629883
			],
			"min":[
				-1.1690285205841064,
				-0.04783666133880615,
				-2.1455583572387695
			],
			"type":"VEC3"
		},
		{
			"bufferView":5,
			"componentType":5126,
			"count":27005,
			"type":"VEC3"
		},
		{
			"bufferView":6,
			"componentType":5126,
			"count":27005,
			"type":"VEC2"
		},
		{
			"bufferView":7,
			"componentType":5123,
			"count":138798,
			"type":"SCALAR"
		},
		{
			"bufferView":8,
			"componentType":5126,
			"count":32,
			"max":[
				2.1582322120666504,
				3.3995521068573,
				2.000091075897217
			],
			"min":[
				-1.5429823398590088,
				-0.3016620874404907,
				9.107589721679688e-05
			],
			"type":"VEC3"
		},
		{
			"bufferView":9,
			"componentType":5126,
			"count":32,
			"type":"VEC3"
		},
		{
			"bufferView":10,
			"componentType":5126,
			"count":32,
			"type":"VEC2"
		},
		{
			"bufferView":11,
			"componentType":5123,
			"count":54,
			"type":"SCALAR"
		}
	],
	"bufferViews":[
		{
			"buffer":0,
			"byteLength":6371112,
			"byteOffset":0,
			"target":34962
		},
		{
			"buffer":0,
			"byteLength":6371112,
			"byteOffset":6371112,
			"target":34962
		},
		{
			"buffer":0,
			"byteLength":4247408,
			"byteOffset":12742224,
			"target":34962
		},
		{
			"buffer":0,
			"byteLength":2123976,
			"byteOffset":16989632,
			"target":34963
		},
		{
			"buffer":0,
			"byteLength":324060,
			"byteOffset":19113608,
			"target":34962
		},
		{
			"buffer":0,
			"byteLength":324060,
			"byteOffset":19437668,
			"target":34962
		},
		{
			"buffer":0,
			"byteLength":216040,
			"byteOffset":19761728,
			"target":34962
		},
		{
			"buffer":0,
			"byteLength":277596,
			"byteOffset":19977768,
			"target":34963
		},
		{
			"buffer":0,
			"byteLength":384,
			"byteOffset":20255364,
			"target":34962
		},
		{
			"buffer":0,
			"byteLength":384,
			"byteOffset":20255748,
			"target":34962
		},
		{
			"buffer":0,
			"byteLength":256,
			"byteOffset":20256132,
			"target":34962
		},
		{
			"buffer":0,
			"byteLength":108,
			"byteOffset":20256388,
			"target":34963
		}
	],
	"samplers":[
		{
			"magFilter":9729,
			"minFilter":9987
		}
	],
	"buffers":[
		{
			"byteLength":20256496,
			"uri":"3dmodel.bin"
		}
	]
}
