{
	"asset":{
		"generator":"Khronos glTF Blender I/O v4.3.47",
		"version":"2.0"
	},
	"scene":0,
	"scenes":[
		{
			"name":"Scene",
			"nodes":[
				0,
				1
			]
		}
	],
	"nodes":[
		{
			"mesh":0,
			"name":"Mesh_0",
			"rotation":[
				-0.2639195919036865,
				-0.1000276505947113,
				0.6398337483406067,
				0.7148103713989258
			],
			"translation":[
				0,
				0,
				-0.9954066276550293
			]
		},
		{
			"mesh":1,
			"name":"Cube",
			"scale":[
				1.2585532665252686,
				0.7395541667938232,
				1.9314849376678467
			],
			"translation":[
				0.10471554845571518,
				0.7844328284263611,
				-1.3629240989685059
			]
		}
	],
	"materials":[
		{
			"name":"Material_0",
			"normalTexture":{
				"index":0
			},
			"occlusionTexture":{
				"index":1
			},
			"pbrMetallicRoughness":{
				"baseColorTexture":{
					"index":2
				},
				"metallicFactor":0,
				"metallicRoughnessTexture":{
					"index":1
				}
			}
		}
	],
	"meshes":[
		{
			"name":"Mesh_0",
			"primitives":[
				{
					"attributes":{
						"POSITION":0,
						"NORMAL":1,
						"TEXCOORD_0":2
					},
					"indices":3,
					"material":0
				}
			]
		},
		{
			"name":"Cube.002",
			"primitives":[
				{
					"attributes":{
						"POSITION":4,
						"NORMAL":5,
						"TEXCOORD_0":6
					},
					"indices":7
				}
			]
		}
	],
	"textures":[
		{
			"sampler":0,
			"source":0
		},
		{
			"sampler":0,
			"source":1
		},
		{
			"sampler":0,
			"source":2
		}
	],
	"images":[
		{
			"mimeType":"image/jpeg",
			"name":"Image_0",
			"uri":"Image_0.jpg"
		},
		{
			"mimeType":"image/png",
			"name":"Image_1-Image_3",
			"uri":"Image_1-Image_3.png"
		},
		{
			"mimeType":"image/jpeg",
			"name":"Image_2",
			"uri":"Image_2.jpg"
		}
	],
	"accessors":[
		{
			"bufferView":0,
			"componentType":5126,
			"count":530830,
			"max":[
				1.8024948835372925,
				1.4045555591583252,
				2.0481910705566406
			],
			"min":[
				-0.16870439052581787,
				-1.829216718673706,
				-2.069035291671753
			],
			"type":"VEC3"
		},
		{
			"bufferView":1,
			"componentType":5126,
			"count":530830,
			"type":"VEC3"
		},
		{
			"bufferView":2,
			"componentType":5126,
			"count":530830,
			"type":"VEC2"
		},
		{
			"bufferView":3,
			"componentType":5125,
			"count":530994,
			"type":"SCALAR"
		},
		{
			"bufferView":4,
			"componentType":5126,
			"count":32,
			"max":[
				1.7551863193511963,
				1.89411199092865,
				1
			],
			"min":[
				-1.7551863193511963,
				-1.894112229347229,
				-1
			],
			"type":"VEC3"
		},
		{
			"bufferView":5,
			"componentType":5126,
			"count":32,
			"type":"VEC3"
		},
		{
			"bufferView":6,
			"componentType":5126,
			"count":32,
			"type":"VEC2"
		},
		{
			"bufferView":7,
			"componentType":5123,
			"count":54,
			"type":"SCALAR"
		}
	],
	"bufferViews":[
		{
			"buffer":0,
			"byteLength":6369960,
			"byteOffset":0,
			"target":34962
		},
		{
			"buffer":0,
			"byteLength":6369960,
			"byteOffset":6369960,
			"target":34962
		},
		{
			"buffer":0,
			"byteLength":4246640,
			"byteOffset":12739920,
			"target":34962
		},
		{
			"buffer":0,
			"byteLength":2123976,
			"byteOffset":16986560,
			"target":34963
		},
		{
			"buffer":0,
			"byteLength":384,
			"byteOffset":19110536,
			"target":34962
		},
		{
			"buffer":0,
			"byteLength":384,
			"byteOffset":19110920,
			"target":34962
		},
		{
			"buffer":0,
			"byteLength":256,
			"byteOffset":19111304,
			"target":34962
		},
		{
			"buffer":0,
			"byteLength":108,
			"byteOffset":19111560,
			"target":34963
		}
	],
	"samplers":[
		{
			"magFilter":9729,
			"minFilter":9987
		}
	],
	"buffers":[
		{
			"byteLength":19111668,
			"uri":"3dmodel.bin"
		}
	]
}
