{
	"asset":{
		"generator":"Khronos glTF Blender I/O v4.3.47",
		"version":"2.0"
	},
	"scene":0,
	"scenes":[
		{
			"name":"Scene",
			"nodes":[
				0,
				1
			]
		}
	],
	"nodes":[
		{
			"mesh":0,
			"name":"Mesh_0"
		},
		{
			"mesh":1,
			"name":"Cube"
		}
	],
	"materials":[
		{
			"name":"Material_0",
			"normalTexture":{
				"index":0
			},
			"occlusionTexture":{
				"index":1
			},
			"pbrMetallicRoughness":{
				"baseColorTexture":{
					"index":2
				},
				"metallicFactor":0,
				"metallicRoughnessTexture":{
					"index":1
				}
			}
		}
	],
	"meshes":[
		{
			"name":"Mesh_0",
			"primitives":[
				{
					"attributes":{
						"POSITION":0,
						"NORMAL":1,
						"TEXCOORD_0":2
					},
					"indices":3,
					"material":0
				}
			]
		},
		{
			"name":"Cube.002",
			"primitives":[
				{
					"attributes":{
						"POSITION":4,
						"NORMAL":5,
						"TEXCOORD_0":6
					},
					"indices":7
				}
			]
		}
	],
	"textures":[
		{
			"sampler":0,
			"source":0
		},
		{
			"sampler":0,
			"source":1
		},
		{
			"sampler":0,
			"source":2
		}
	],
	"images":[
		{
			"mimeType":"image/jpeg",
			"name":"Image_0",
			"uri":"Image_0.jpg"
		},
		{
			"mimeType":"image/png",
			"name":"Image_1-Image_3",
			"uri":"Image_1-Image_3.png"
		},
		{
			"mimeType":"image/jpeg",
			"name":"Image_2",
			"uri":"Image_2.jpg"
		}
	],
	"accessors":[
		{
			"bufferView":0,
			"componentType":5126,
			"count":530910,
			"max":[
				1.380963921546936,
				-0.05349503457546234,
				0.8273434042930603
			],
			"min":[
				-1.225295066833496,
				-3.7116358280181885,
				-0.8434208631515503
			],
			"type":"VEC3"
		},
		{
			"bufferView":1,
			"componentType":5126,
			"count":530910,
			"type":"VEC3"
		},
		{
			"bufferView":2,
			"componentType":5126,
			"count":530910,
			"type":"VEC2"
		},
		{
			"bufferView":3,
			"componentType":5125,
			"count":530994,
			"type":"SCALAR"
		},
		{
			"bufferView":4,
			"componentType":5126,
			"count":32,
			"max":[
				2.313710927963257,
				3.0333515610436734e-07,
				1.4007985591888428
			],
			"min":[
				-2.1042799949645996,
				-3.8629703521728516,
				-1.4007986783981323
			],
			"type":"VEC3"
		},
		{
			"bufferView":5,
			"componentType":5126,
			"count":32,
			"type":"VEC3"
		},
		{
			"bufferView":6,
			"componentType":5126,
			"count":32,
			"type":"VEC2"
		},
		{
			"bufferView":7,
			"componentType":5123,
			"count":54,
			"type":"SCALAR"
		}
	],
	"bufferViews":[
		{
			"buffer":0,
			"byteLength":6370920,
			"byteOffset":0,
			"target":34962
		},
		{
			"buffer":0,
			"byteLength":6370920,
			"byteOffset":6370920,
			"target":34962
		},
		{
			"buffer":0,
			"byteLength":4247280,
			"byteOffset":12741840,
			"target":34962
		},
		{
			"buffer":0,
			"byteLength":2123976,
			"byteOffset":16989120,
			"target":34963
		},
		{
			"buffer":0,
			"byteLength":384,
			"byteOffset":19113096,
			"target":34962
		},
		{
			"buffer":0,
			"byteLength":384,
			"byteOffset":19113480,
			"target":34962
		},
		{
			"buffer":0,
			"byteLength":256,
			"byteOffset":19113864,
			"target":34962
		},
		{
			"buffer":0,
			"byteLength":108,
			"byteOffset":19114120,
			"target":34963
		}
	],
	"samplers":[
		{
			"magFilter":9729,
			"minFilter":9987
		}
	],
	"buffers":[
		{
			"byteLength":19114228,
			"uri":"3dmodel.bin"
		}
	]
}
