{
	"asset":{
		"generator":"Khronos glTF Blender I/O v4.2.70",
		"version":"2.0"
	},
	"scene":0,
	"scenes":[
		{
			"name":"Scene",
			"nodes":[
				0,
				1
			]
		}
	],
	"nodes":[
		{
			"mesh":0,
			"name":"Cube.001",
			"scale":[
				0.606400728225708,
				20.583471298217773,
				0.8220758438110352
			]
		},
		{
			"mesh":1,
			"name":"Cube",
			"scale":[
				13.14436149597168,
				0.5259358286857605,
				0.6571234464645386
			]
		}
	],
	"materials":[
		{
			"doubleSided":true,
			"name":"Material.001",
			"pbrMetallicRoughness":{
				"baseColorFactor":[
					0.4969223141670227,
					0.014606786891818047,
					0.04777353256940842,
					1
				],
				"metallicFactor":0,
				"roughnessFactor":0.6842105388641357
			}
		}
	],
	"meshes":[
		{
			"name":"Cube.003",
			"primitives":[
				{
					"attributes":{
						"POSITION":0,
						"NORMAL":1,
						"TEXCOORD_0":2
					},
					"indices":3,
					"material":0
				}
			]
		},
		{
			"name":"Cube.004",
			"primitives":[
				{
					"attributes":{
						"POSITION":4,
						"NORMAL":5,
						"TEXCOORD_0":6
					},
					"indices":7,
					"material":0
				}
			]
		}
	],
	"accessors":[
		{
			"bufferView":0,
			"componentType":5126,
			"count":19376,
			"max":[
				20.30762481689453,
				1.3301422595977783,
				0.7615326046943665
			],
			"min":[
				-20.30762481689453,
				-0.006963014602661133,
				-1.271437168121338
			],
			"type":"VEC3"
		},
		{
			"bufferView":1,
			"componentType":5126,
			"count":19376,
			"type":"VEC3"
		},
		{
			"bufferView":2,
			"componentType":5126,
			"count":19376,
			"type":"VEC2"
		},
		{
			"bufferView":3,
			"componentType":5123,
			"count":113664,
			"type":"SCALAR"
		},
		{
			"bufferView":4,
			"componentType":5126,
			"count":8062,
			"max":[
				1.131110668182373,
				57.40464401245117,
				1.191745638847351
			],
			"min":[
				-1.131110668182373,
				50.788150787353516,
				-1.830020546913147
			],
			"type":"VEC3"
		},
		{
			"bufferView":5,
			"componentType":5126,
			"count":8062,
			"type":"VEC3"
		},
		{
			"bufferView":6,
			"componentType":5126,
			"count":8062,
			"type":"VEC2"
		},
		{
			"bufferView":7,
			"componentType":5123,
			"count":46656,
			"type":"SCALAR"
		}
	],
	"bufferViews":[
		{
			"buffer":0,
			"byteLength":232512,
			"byteOffset":0,
			"target":34962
		},
		{
			"buffer":0,
			"byteLength":232512,
			"byteOffset":232512,
			"target":34962
		},
		{
			"buffer":0,
			"byteLength":155008,
			"byteOffset":465024,
			"target":34962
		},
		{
			"buffer":0,
			"byteLength":227328,
			"byteOffset":620032,
			"target":34963
		},
		{
			"buffer":0,
			"byteLength":96744,
			"byteOffset":847360,
			"target":34962
		},
		{
			"buffer":0,
			"byteLength":96744,
			"byteOffset":944104,
			"target":34962
		},
		{
			"buffer":0,
			"byteLength":64496,
			"byteOffset":1040848,
			"target":34962
		},
		{
			"buffer":0,
			"byteLength":93312,
			"byteOffset":1105344,
			"target":34963
		}
	],
	"buffers":[
		{
			"byteLength":1198656,
			"uri":"3dmodel_01.bin"
		}
	]
}
