{
	"asset":{
		"generator":"Khronos glTF Blender I/O v4.2.70",
		"version":"2.0"
	},
	"scene":0,
	"scenes":[
		{
			"name":"Scene",
			"nodes":[
				0,
				1
			]
		}
	],
	"nodes":[
		{
			"mesh":0,
			"name":"Cube",
			"scale":[
				1.9402884244918823,
				4.2243266105651855,
				1.9402884244918823
			]
		},
		{
			"mesh":1,
			"name":"Suzanne",
			"rotation":[
				-0.7071068286895752,
				0,
				0,
				0.7071068286895752
			],
			"translation":[
				0,
				-6.211577415466309,
				0
			]
		}
	],
	"materials":[
		{
			"doubleSided":true,
			"name":"Material",
			"pbrMetallicRoughness":{
				"baseColorFactor":[
					0.800000011920929,
					0.800000011920929,
					0.800000011920929,
					1
				],
				"metallicFactor":0,
				"roughnessFactor":0.5
			}
		}
	],
	"meshes":[
		{
			"name":"Cube",
			"primitives":[
				{
					"attributes":{
						"POSITION":0,
						"NORMAL":1,
						"TEXCOORD_0":2
					},
					"indices":3,
					"material":0
				}
			]
		},
		{
			"name":"Suzanne",
			"primitives":[
				{
					"attributes":{
						"POSITION":4,
						"NORMAL":5,
						"TEXCOORD_0":6
					},
					"indices":7
				}
			]
		}
	],
	"accessors":[
		{
			"bufferView":0,
			"componentType":5126,
			"count":30,
			"max":[
				2.8123433589935303,
				-7.450580596923828e-09,
				2.8123433589935303
			],
			"min":[
				-2.8123433589935303,
				-1.9060322046279907,
				-2.8123433589935303
			],
			"type":"VEC3"
		},
		{
			"bufferView":1,
			"componentType":5126,
			"count":30,
			"type":"VEC3"
		},
		{
			"bufferView":2,
			"componentType":5126,
			"count":30,
			"type":"VEC2"
		},
		{
			"bufferView":3,
			"componentType":5123,
			"count":54,
			"type":"SCALAR"
		},
		{
			"bufferView":4,
			"componentType":5126,
			"count":31488,
			"max":[
				1.328185796737671,
				0.9392362236976624,
				0.8224414587020874
			],
			"min":[
				-1.328185796737671,
				-0.971822202205658,
				-0.7782661318778992
			],
			"type":"VEC3"
		},
		{
			"bufferView":5,
			"componentType":5126,
			"count":31488,
			"type":"VEC3"
		},
		{
			"bufferView":6,
			"componentType":5126,
			"count":31488,
			"type":"VEC2"
		},
		{
			"bufferView":7,
			"componentType":5123,
			"count":47232,
			"type":"SCALAR"
		}
	],
	"bufferViews":[
		{
			"buffer":0,
			"byteLength":360,
			"byteOffset":0,
			"target":34962
		},
		{
			"buffer":0,
			"byteLength":360,
			"byteOffset":360,
			"target":34962
		},
		{
			"buffer":0,
			"byteLength":240,
			"byteOffset":720,
			"target":34962
		},
		{
			"buffer":0,
			"byteLength":108,
			"byteOffset":960,
			"target":34963
		},
		{
			"buffer":0,
			"byteLength":377856,
			"byteOffset":1068,
			"target":34962
		},
		{
			"buffer":0,
			"byteLength":377856,
			"byteOffset":378924,
			"target":34962
		},
		{
			"buffer":0,
			"byteLength":251904,
			"byteOffset":756780,
			"target":34962
		},
		{
			"buffer":0,
			"byteLength":94464,
			"byteOffset":1008684,
			"target":34963
		}
	],
	"buffers":[
		{
			"byteLength":1103148,
			"uri":"3dmodel.bin"
		}
	]
}
